<?xml version="1.0" encoding="UTF-8" standalone="no"?>
<svg width="14px" height="14px" viewBox="0 0 14 14" version="1.1" xmlns="http://www.w3.org/2000/svg" xmlns:xlink="http://www.w3.org/1999/xlink">
    <!-- Generator: Sketch 39.1 (31720) - http://www.bohemiancoding.com/sketch -->
    <title>facebook</title>
    <desc>Created with Sketch.</desc>
    <defs></defs>
    <g id="Website-V2" stroke="none" stroke-width="1" fill="none" fill-rule="evenodd">
        <g id="Artboard" transform="translate(-966.000000, -1731.000000)" fill="#BAC4CC">
            <g id="Footer" transform="translate(0.000000, 1439.000000)">
                <g id="Copy" transform="translate(0.000000, 270.000000)">
                    <path d="M980,22.875 C980,22.3964844 979.603516,22 979.125,22 L966.875,22 C966.396484,22 966,22.3964844 966,22.875 L966,35.125 C966,35.6035156 966.396484,36 966.875,36 L973.485352,36 L973.485352,30.5585938 L971.735352,30.5585938 L971.735352,28.5419922 L973.485352,28.5419922 L973.485352,26.7988281 C973.485352,25.2060547 974.456055,24.1396484 976.376953,24.1396484 C977.224609,24.1396484 977.8125,24.2353516 977.8125,24.2353516 L977.8125,26.0537109 L976.5,26.0537109 C975.918945,26.0537109 975.625,26.3818359 975.625,26.9560547 L975.625,28.5419922 L977.668945,28.5419922 L977.375,30.5585938 L975.625,30.5585938 L975.625,36 L979.125,36 C979.603516,36 980,35.6035156 980,35.125 L980,22.875 Z" id="facebook"></path>
                </g>
            </g>
        </g>
    </g>
</svg>