<?xml version="1.0" encoding="UTF-8" standalone="no"?>
<svg width="113px" height="47px" viewBox="0 0 113 47" version="1.1" xmlns="http://www.w3.org/2000/svg" xmlns:xlink="http://www.w3.org/1999/xlink">
    <!-- Generator: Sketch 39.1 (31720) - http://www.bohemiancoding.com/sketch -->
    <title>Logo</title>
    <desc>Created with Sketch.</desc>
    <defs></defs>
    <g id="Website-V2" stroke="none" stroke-width="1" fill="none" fill-rule="evenodd">
        <g id="Artboard" transform="translate(-20.000000, -20.000000)" fill="#FFFFFF">
            <g id="Nav" transform="translate(20.000000, 20.000000)">
                <g id="Logo">
                    <text id="MOTO" opacity="0.7" font-family="BrandonGrotesque-Regular, Brandon Grotesque" font-size="10.4166667" font-weight="normal" letter-spacing="4.79166684">
                        <tspan x="33.8437497" y="45.8703704">MOT</tspan>
                        <tspan x="70.6041669" y="45.8703704">O</tspan>
                    </text>
                    <g id="Theron" transform="translate(0.389091, 0.611111)">
                        <path d="M0.466105551,36.1080085 C1.33664859,35.9978211 2.33183848,35.4728807 4.49720457,35.110142 C5.54185622,34.977917 6.25433905,34.6660825 7.12862247,33.181171 C11.9995047,24.8067815 19.2573588,10.4559402 21.5476014,5.46700637 C25.3881045,4.36027216 28.5921877,3.46708369 30.1752136,3.04506167 C30.517935,2.95735164 30.6755564,2.804409 30.6535734,2.6298688 C30.6151031,2.32442346 30.1903843,2.11219751 29.0578006,1.54626166 C28.1158129,1.08919347 27.3263896,0.790137356 26.1511565,0.938890411 C24.7147604,1.1206997 22.8105573,1.45038218 20.7377412,1.84573721 C19.8883035,1.42128532 19.0443615,1.04046848 18.4400383,0.806644973 C17.6070878,0.513098232 17.3949478,0.584280143 17.0421126,1.29389961 C16.8684428,1.67052686 16.6622374,2.13993359 16.3419377,2.75677358 C13.0288173,3.4864406 9.89530123,4.23770518 8.40482541,4.69234351 C6.48457383,5.24571061 5.90311129,5.89560684 5.27856044,6.90560221 C4.87670226,7.57709599 4.70391018,8.66290278 4.29743394,9.99994106 C4.16729132,10.3710589 4.31985578,10.529071 5.04333011,10.3045065 C7.76861458,9.47192117 10.8366205,8.55162576 13.866595,7.68047478 C8.11768903,18.9144998 2.89023114,29.3732328 0.13899365,35.6174442 C-0.0672117685,36.0868509 0.20494264,36.1410648 0.466105551,36.1080085 L0.466105551,36.1080085 Z" id="Path"></path>
                        <path d="M44.7456449,21.858287 L44.8590248,21.6283962 C45.009011,21.3072629 45.034935,21.0845114 44.7039133,20.8026442 L44.5620469,20.681844 C44.4201805,20.5610437 44.3362854,20.6120194 44.0622368,21.0315343 L43.9452961,21.2175888 C41.0619457,25.821544 38.8501887,27.8554327 36.7975359,28.5966485 C36.9327127,26.4675146 39.8963974,21.7687473 40.7098571,19.319481 C41.2447092,17.7754994 41.1368866,16.9900141 40.0126378,16.1551215 C39.3068666,15.5949568 38.6295819,15.3854831 37.9736621,15.4390277 C36.7930065,15.535408 34.0859983,17.4332172 31.1629128,19.9223172 C33.9572428,14.2224524 35.9131874,10.6649993 37.5432356,7.97256424 C39.9481407,3.98131764 39.8941623,1.69111686 38.8350064,1.11567288 C38.2817841,0.807817519 37.1529763,0.458694733 36.0348509,0.241081092 C35.6306166,0.141698718 35.4557046,0.155977283 35.0682762,0.805383042 C31.7080449,7.12509579 26.9409645,15.6336256 22.9995906,22.927447 C21.087374,26.4813304 20.2606692,28.225645 20.3568112,29.4092274 C20.4315883,30.3297914 21.0061756,30.900665 22.4553226,31.4001458 C23.5876912,31.793105 24.436327,31.9444637 24.9173348,31.9051977 C25.5732546,31.8516531 25.8839096,31.3408957 27.0400715,28.7753995 C27.4096959,27.9068118 27.8266091,27.0784909 28.1997943,26.2537396 C30.7964172,22.9970026 33.3991636,20.3575445 35.2163705,18.8853888 C34.1807101,21.308667 32.1642316,24.1209017 31.263316,26.5773073 C30.7320247,28.1651253 31.188673,29.4516596 32.370893,30.4583281 C33.4076858,31.30036 34.139381,31.6377732 35.2763086,31.5449625 C37.8999878,31.3307841 42.0977403,27.1931822 44.7456449,21.858287 Z" id="Path"></path>
                        <path d="M62.0266774,22.0300385 L62.1498805,21.8052847 C62.3135967,21.4909631 62.3491175,21.2695457 62.0305809,20.9735743 L61.8940652,20.8467293 C61.7575496,20.7198844 61.6715313,20.7671706 61.3796198,21.1743965 L61.2547526,21.3552004 C58.3406299,25.5593084 52.9707246,28.1905997 49.6826378,28.3157142 C49.1127028,28.3374007 48.6271219,28.2678511 48.2242311,28.0631157 C48.0322258,27.6302902 48.0544341,27.0572741 48.1593325,26.3490722 C51.2321171,25.1758345 53.5596019,24.0309561 55.0574329,23.0056731 C57.9232356,21.0040613 58.6641184,19.6994887 58.6141964,18.3809937 C58.579251,17.4580472 57.8833601,16.4722239 57.0254171,15.8446721 C56.6092138,15.288338 56.2501642,15.0819343 55.5759061,14.6674589 C54.9016481,14.2529835 54.1885411,13.9720257 53.311718,14.0053896 C50.4620427,14.1138221 46.5673493,16.7707681 44.4007657,19.8461028 C41.3601117,24.1870649 42.0365471,26.9781677 43.6392144,28.7217241 C45.6092516,30.8914333 46.9916244,31.455017 48.6575884,31.3916257 C53.0855453,31.2231382 59.1930053,27.1993746 62.0266774,22.0300385 Z M53.7649819,21.338339 C52.614552,22.2623768 50.85201,23.2537192 48.9107752,24.1638347 C50.330395,21.0729095 53.4514996,17.6971756 55.8427945,17.078027 C56.3394484,18.5995892 55.3421749,20.0899703 53.7649819,21.338339 Z" id="Combined-Shape"></path>
                        <path d="M62.2009878,30.5065708 C62.6835788,30.5095309 63.0805734,30.1601075 64.8515556,27.5320319 C69.1024497,21.1366892 74.3979481,16.1112052 78.8459219,13.3676026 C78.9780745,13.2804486 79.0663551,13.1930255 79.066892,13.1050642 C79.0674289,13.0171028 78.8052712,12.8395656 78.6744607,12.7068164 C78.368968,12.4410487 78.2825663,12.2206072 77.9315911,12.2184545 C77.5806158,12.2163017 76.965067,12.4324376 75.9969323,12.9103047 C74.0170595,13.8217891 71.7701971,15.3473882 69.25554,17.6190438 C69.4347857,17.004391 69.5260191,16.4331806 69.5289719,15.9493934 C69.5327299,15.3336642 69.3604635,14.8048199 68.8358796,14.4937261 C68.2238204,14.1381135 67.697626,14.0909037 66.9534141,13.822445 C66.6907196,13.7328691 66.3397443,13.7307164 66.2062496,14.0377737 C65.5403865,15.3091763 62.6640168,19.3379055 60.9393224,21.5704243 C58.728279,24.4157122 57.8820965,26.4776902 57.8743119,27.7531293 C57.8654537,29.2044911 59.0037073,29.6073135 60.317717,29.9672317 C61.543983,30.3266117 61.8938845,30.5046871 62.2009878,30.5065708 L62.2009878,30.5065708 Z" id="Path"></path>
                        <path d="M87.7545035,25.9032224 C88.2723609,25.0890608 88.7501439,24.1851334 89.0964294,23.275555 C92.61618,23.1186568 96.0686475,21.6524815 97.6854584,19.7849986 L97.8701831,19.5728275 C98.1006192,19.3185988 98.110014,19.0988931 97.9459579,18.8277119 L97.8639299,18.6921213 C97.7399483,18.5107059 97.6103298,18.4611139 97.2446384,18.797574 L97.0617926,18.965804 C95.0962009,20.7742768 92.5598411,21.3553608 89.6575031,21.4507475 C89.7163672,21.1011021 89.7752314,20.7514567 89.7902631,20.3999277 C89.8579058,18.8180471 89.3444525,17.4753262 88.1816443,16.941116 C87.6494014,16.0378064 85.9775142,15.0855227 84.5310426,15.0233632 C81.5504344,14.895277 77.7006627,17.6352837 75.3831485,20.4851582 C72.5114603,23.9715462 72.7669093,27.2401423 74.6053479,29.4321957 C75.7362137,30.713405 76.9315806,31.5131455 78.8163769,31.5941412 C82.1914774,31.73918 85.4945908,29.4599222 87.7545035,25.9032224 Z M80.3593519,24.2647731 C81.5303222,22.5542186 82.8653487,21.1148452 84.141511,20.0251173 C84.090779,21.2115277 84.7833201,22.4739008 86.6054943,22.9924242 C84.8290015,25.5133731 81.8308364,27.8497573 78.8621183,28.4705539 C78.6974459,27.1868431 79.3311528,25.7173318 80.3593519,24.2647731 Z M86.0714024,19.0515259 C86.0789183,18.8757614 86.1283876,18.7458216 86.1321455,18.6579393 C86.6274555,18.3710713 87.0732961,18.214143 87.4734252,18.0992722 C87.8622806,18.2480481 88.0607744,18.7408186 88.0344689,19.3559944 C88.0100424,19.9272291 87.8522395,20.536754 87.6048927,21.1864528 C86.4364476,20.7840661 86.0319442,19.9742896 86.0714024,19.0515259 Z" id="Combined-Shape"></path>
                        <path d="M103.613511,33.6459329 C105.712944,33.8111264 109.144363,32.1399898 111.38455,30.5074716 C111.85283,30.1472673 111.988368,29.5402976 112.029565,29.0141381 C112.053596,28.7072117 111.93268,28.5653473 111.656519,28.7200846 C109.073292,30.2373772 107.100748,30.6998026 106.269722,30.6344135 C106.09477,30.6206474 105.966988,30.5664761 105.839206,30.5123049 C107.465408,27.7285566 109.720219,25.3472043 110.94502,23.1936232 C112.018009,21.2927972 111.932314,20.1390188 111.105613,19.4563354 C110.157995,18.6317876 109.44191,18.2225085 108.917051,18.1812101 C108.435931,18.1433533 107.806431,18.314405 106.8433,18.812139 C105.789259,19.3468365 104.300377,20.3767198 102.470999,21.8209785 C103.13572,20.6380129 103.507115,19.8290178 103.544878,19.3467049 C103.606672,18.5574656 103.321103,18.2702952 102.205399,17.3442879 C101.503046,16.7596224 100.659179,16.2961721 100.178059,16.2583153 C99.3032945,16.1894846 98.2449294,17.3414765 93.0774524,23.1994534 C90.6133585,26.0055059 89.4460278,27.9871421 89.3396042,29.3463874 C89.2675107,30.2671666 89.8283502,30.9730474 90.6859492,31.2611112 C91.715068,31.6067877 92.6935826,32.0367159 93.2621792,32.0814558 C93.6995613,32.1158711 94.2553169,31.7625499 95.1756014,30.6879267 C99.2041029,25.8873652 102.478625,23.4097817 104.859435,22.2294959 C104.120078,23.8036396 102.121722,25.7198867 100.525526,28.682463 C100.056355,29.616115 99.9739629,30.668434 100.510771,31.6812412 C100.970402,32.5556255 102.213888,33.5358039 103.613511,33.6459329 L103.613511,33.6459329 Z" id="Path"></path>
                    </g>
                </g>
            </g>
        </g>
    </g>
</svg>