<?xml version="1.0" encoding="UTF-8" standalone="no"?>
<svg width="14px" height="12px" viewBox="0 0 14 12" version="1.1" xmlns="http://www.w3.org/2000/svg" xmlns:xlink="http://www.w3.org/1999/xlink">
    <!-- Generator: Sketch 39.1 (31720) - http://www.bohemiancoding.com/sketch -->
    <title>twitter</title>
    <desc>Created with Sketch.</desc>
    <defs></defs>
    <g id="Website-V2" stroke="none" stroke-width="1" fill="none" fill-rule="evenodd">
        <g id="Artboard" transform="translate(-926.000000, -1732.000000)" fill="#BAC4CC">
            <g id="Footer" transform="translate(0.000000, 1439.000000)">
                <g id="Copy" transform="translate(0.000000, 270.000000)">
                    <path d="M940,24.5087891 C939.480469,24.7412109 938.933594,24.8984375 938.345703,24.9667969 C938.947266,24.6113281 939.398438,24.0439453 939.610352,23.3740234 C939.063477,23.7021484 938.441406,23.9414062 937.798828,24.0712891 C937.258789,23.5244141 936.513672,23.1689453 935.686523,23.1689453 C934.100586,23.1689453 932.822266,24.4472656 932.822266,26.0332031 C932.822266,26.2587891 932.835938,26.4912109 932.883789,26.6962891 C930.504883,26.5664062 928.399414,25.4863281 926.970703,23.75 C926.731445,24.1738281 926.581055,24.6113281 926.581055,25.1445312 C926.581055,26.1289062 927.086914,27.0039062 927.866211,27.5234375 C927.394531,27.5097656 926.957031,27.3798828 926.567383,27.1679688 L926.567383,27.2021484 C926.567383,28.5966797 927.558594,29.7587891 928.871094,30.0185547 C928.625,30.0869141 928.365234,30.1210938 928.105469,30.1210938 C927.927734,30.1210938 927.75,30.1005859 927.572266,30.0664062 C927.927734,31.2011719 929.000977,32.0488281 930.245117,32.0625 C929.274414,32.8417969 928.023438,33.4228516 926.683594,33.4228516 C926.451172,33.4228516 926.225586,33.4091797 926,33.375 C927.264648,34.1884766 928.789062,34.5439453 930.40918,34.5439453 C935.686523,34.5439453 938.571289,30.1689453 938.571289,26.375 L938.571289,25.9990234 C939.125,25.5957031 939.610352,25.0966797 940,24.5087891 L940,24.5087891 Z" id="twitter"></path>
                </g>
            </g>
        </g>
    </g>
</svg>